<?xml version="1.0" encoding="UTF-8" standalone="no"?>
<svg
   xmlns:dc="http://purl.org/dc/elements/1.1/"
   xmlns:cc="http://creativecommons.org/ns#"
   xmlns:rdf="http://www.w3.org/1999/02/22-rdf-syntax-ns#"
   xmlns:svg="http://www.w3.org/2000/svg"
   xmlns="http://www.w3.org/2000/svg"
   xmlns:sodipodi="http://sodipodi.sourceforge.net/DTD/sodipodi-0.dtd"
   xmlns:inkscape="http://www.inkscape.org/namespaces/inkscape"
   width="850"
   height="650"
   viewBox="0 0 2833.3334 2166.6696"
   version="1.2"
   id="svg4443"
   inkscape:version="0.91 r13725"
   sodipodi:docname="logo2.svg"
   inkscape:export-filename="/home/akrherz/logo2.gif"
   inkscape:export-xdpi="9"
   inkscape:export-ydpi="9">
  <metadata
     id="metadata4501">
    <rdf:RDF>
      <cc:Work
         rdf:about="">
        <dc:format>image/svg+xml</dc:format>
        <dc:type
           rdf:resource="http://purl.org/dc/dcmitype/StillImage" />
        <dc:title></dc:title>
      </cc:Work>
    </rdf:RDF>
  </metadata>
  <sodipodi:namedview
     pagecolor="#ff62ff"
     bordercolor="#666666"
     borderopacity="1"
     objecttolerance="10"
     gridtolerance="10"
     guidetolerance="10"
     inkscape:pageopacity="0"
     inkscape:pageshadow="2"
     inkscape:window-width="1642"
     inkscape:window-height="934"
     id="namedview4499"
     showgrid="false"
     inkscape:zoom="0.81454783"
     inkscape:cx="463.83341"
     inkscape:cy="454.30334"
     inkscape:window-x="141"
     inkscape:window-y="35"
     inkscape:window-maximized="0"
     inkscape:current-layer="svg4443"
     fit-margin-top="0"
     fit-margin-left="0"
     fit-margin-right="0"
     fit-margin-bottom="2.7755576e-17"
     showguides="false"
     units="px" />
  <desc
     id="desc4445">Generated with Qt</desc>
  <defs
     id="defs4447" />
  <g
     id="g4449"
     style="fill:none;fill-opacity:1;fill-rule:evenodd;stroke:#000000;stroke-width:1;stroke-linecap:square;stroke-linejoin:bevel"
     transform="matrix(0.95987673,0,0,0.95987673,-281.40928,76.061543)">
    <g
       font-size="45.8333"
       font-weight="400"
       font-style="normal"
       id="g4451"
       style="font-style:normal;font-weight:400;font-size:45.83330154px;font-family:Cantarell;fill:none;fill-opacity:1;stroke:#000000;stroke-width:1;stroke-linecap:square;stroke-linejoin:bevel;stroke-opacity:1" />
    <g
       transform="scale(11.8081,11.8081)"
       font-size="45.8333"
       font-weight="400"
       font-style="normal"
       id="g4453"
       style="font-style:normal;font-weight:400;font-size:45.83330154px;font-family:Cantarell;fill:none;fill-opacity:1;stroke:#000000;stroke-width:1;stroke-linecap:square;stroke-linejoin:bevel;stroke-opacity:1" />
    <g
       transform="scale(0.999751,0.999751)"
       font-size="45.8333"
       font-weight="400"
       font-style="normal"
       id="g4455"
       style="font-style:normal;font-weight:400;font-size:45.83330154px;font-family:Cantarell;fill:none;fill-opacity:1;stroke:none">
      <path
         vector-effect="none"
         d="m -1,-1 3509.87,0 0,2482.31 L -1,2481.31 -1,-1"
         id="path4457"
         style="fill:none;fill-opacity:1;fill-rule:evenodd"
         inkscape:connector-curvature="0" />
    </g>
    <g
       transform="scale(11.8081,11.8081)"
       font-size="45.8333"
       font-weight="400"
       font-style="normal"
       id="g4459"
       style="font-style:normal;font-weight:400;font-size:45.83330154px;font-family:Cantarell;fill:none;fill-opacity:1;stroke:#000000;stroke-width:1;stroke-linecap:square;stroke-linejoin:bevel;stroke-opacity:1" />
    <g
       transform="scale(11.8081,11.8081)"
       font-size="45.8333"
       font-weight="400"
       font-style="normal"
       id="g4461"
       style="font-style:normal;font-weight:400;font-size:45.83330154px;font-family:Cantarell;fill:none;fill-opacity:1;stroke:#000000;stroke-width:1;stroke-linecap:square;stroke-linejoin:bevel;stroke-opacity:1" />
    <g
       transform="matrix(11.8081,0,0,11.8081,179.679,133.875)"
       font-size="45.8333"
       font-weight="400"
       font-style="normal"
       id="g4463"
       style="font-style:normal;font-weight:400;font-size:45.83330154px;font-family:Cantarell;fill:none;fill-opacity:1;stroke:#000000;stroke-width:1;stroke-linecap:square;stroke-linejoin:bevel;stroke-opacity:1" />
    <g
       transform="matrix(11.8081,0,0,11.8081,179.679,133.875)"
       font-size="45.8333"
       font-weight="400"
       font-style="normal"
       id="g4465"
       style="font-style:normal;font-weight:400;font-size:45.83330154px;font-family:Cantarell;fill:none;fill-opacity:1;stroke:#000000;stroke-width:1;stroke-linecap:square;stroke-linejoin:bevel;stroke-opacity:1" />
    <g
       transform="matrix(11.8081,0,0,11.8081,179.679,133.875)"
       font-size="45.8333"
       font-weight="400"
       font-style="normal"
       id="g4467"
       style="font-style:normal;font-weight:400;font-size:45.83330154px;font-family:Cantarell;fill:none;fill-opacity:1;stroke:none" />
    <g
       transform="matrix(11.8081,0,0,11.8081,179.679,133.875)"
       font-size="45.8333"
       font-weight="400"
       font-style="normal"
       id="g4471"
       style="font-style:normal;font-weight:400;font-size:45.83330154px;font-family:Cantarell;fill:none;fill-opacity:1;stroke:#000000;stroke-width:1;stroke-linecap:square;stroke-linejoin:bevel;stroke-opacity:1" />
    <g
       transform="matrix(0.999751,0,0,0.999751,179.679,133.875)"
       font-size="45.8333"
       font-weight="400"
       font-style="normal"
       id="g4473"
       style="font-style:normal;font-weight:400;font-size:45.83330154px;font-family:Cantarell;fill:none;fill-opacity:1;stroke:none">
      <path
         vector-effect="non-scaling-stroke"
         d="m 0,0 3119,0 0,2172 L 0,2172 0,0"
         id="path4475"
         style="fill:none;fill-opacity:1;fill-rule:evenodd"
         inkscape:connector-curvature="0" />
    </g>
    <g
       transform="matrix(0.999751,0,0,0.999751,179.679,133.875)"
       font-size="45.8333"
       font-weight="400"
       font-style="normal"
       id="g4477"
       style="font-style:normal;font-weight:400;font-size:45.83330154px;font-family:Cantarell;fill:none;fill-opacity:1;stroke:#000000;stroke-width:3.07086992;stroke-linecap:square;stroke-linejoin:bevel;stroke-opacity:1">
      <path
         vector-effect="none"
         d="m 2596.2115,1689.9436 -3.7429,13.7741 -14.335,15.5101 -22.8877,7.8315 -20.6793,2.938 -49.5272,22.2066 -15.299,18.2096 -0.5053,14.7089 13.7457,11.2177 3.4809,14.5564 -4.0705,33.2619 6.0448,25.9266 -5.6236,6.3625 -14.5318,3.4912 -12.9877,9.0429 -12.6695,-10.9887 -5.8575,0.2193 -4.5757,-8.3656 -12.0989,-2.7377 -1.0852,-14.6422 -4.1361,-3.577 2.3488,-8.3657 -20.4266,-4.5595 -3.1159,-12.1621 -13.7738,-11.7517 -2.751,-16.4451 -30.7756,-10.5691 0.683,-17.3797 -11.9864,-7.0207 -11.0133,-9.4531 -89.9877,2.0987 -108.4867,5.9807 -74.0243,0.9159 -125.292,5.4945 -31.3932,1.1731 -168.5126,3.31 -118.4895,1.9364 -84.7382,-0.6392 -98.2874,0.6201 -101.9834,1.5357 -96.9681,0.5342 -108.5707,-3.6153 -68.0227,-2.1366 -123.4983,-3.4149 -130.52177,-5.876 -72.60952,-3.3671 -169.26218,-7.8315 4.94619,-18.6008 -4.19293,-13.2114 -46.09513,-52.9311 12.06602,-36.2094 3.39383,-32.7088 5.68633,-12.7536 -0.36305,-18.1525 0.90577,-43.0488 -9.65094,-17.0459 1.20519,-19.011 -7.83006,-18.4482 9.78757,-25.1826 -6.98697,-32.6324 7.41459,-1.3164 0.52213,-8.0413 -24.54846,-8.7949 -2.41413,-8.2033 5.24842,-10.0636 -6.89152,-45.4813 8.40644,-3.4913 5.50574,12.9158 3.97304,-8.4228 -22.65176,-23.5611 2.30654,-32.1555 3.49208,-39.6817 -7.6691,-6.1621 -23.12337,-6.4482 -2.62187,-6.6009 7.64478,-10.636 1.51306,-9.7201 -4.43716,-5.1986 -20.01773,6.5437 -15.19785,-8.3179 -2.11378,-15.1667 5.07719,-7.3927 -12.72759,-14.0222 6.35537,-32.5657 -8.45698,-17.6374 -0.61197,-6.4004 16.06061,-5.3418 -5.59464,-15.8632 0.64003,-12.5913 10.69427,-22.2827 -24.07311,-42.81235 -9.62194,-24.8297 6.51912,-11.98463 0.24889,-24.35273 -16.01098,-9.10676 -7.24617,-9.66286 -14.21537,-3.28137 -0.53896,-16.03675 -11.06482,-12.48447 -6.79329,-44.20119 -27.79443,-27.46431 -3.82707,-27.18004 11.42225,-8.66511 2.86234,-18.02846 -3.88975,-12.98812 -10.70269,-9.82598 -8.32504,-18.47011 -14.2556,-12.65902 6.04937,-18.40048 -1.72451,-20.0278 9.06801,-15.55121 1.36802,-15.03802 -18.00222,-13.61293 -16.79044,-17.13847 -2.76689,-27.76097 -4.71693,-6.00853 5.46643,-3.65815 -9.20369,-29.43505 -11.28283,-19.72731 -9.16999,-3.99394 -26.06413,-24.62075 -5.02879,-23.95115 3.99081,-16.46981 14.21405,-12.77444 6.50555,-20.83671 6.14297,0.87568 7.48664,-6.93572 9.16344,-29.22803 -2.4525,-10.10357 13.37509,-22.13398 -0.11509,-20.09362 8.29978,-14.73373 -7.93672,-23.60012 17.36871,-5.37705 7.72526,-7.74939 0.83932,-7.21042 4.84888,-22.45354 -7.15353,-49.09845 -5.75464,-5.4486 -29.94284,-5.75576 -3.19171,-8.47814 3.46869,-7.88481 -4.45121,-6.29566 -2.89228,-15.72779 16.695,-9.64198 8.65161,-28.69681 -0.24328,-16.081769 -13.34328,-10.307695 -12.3533,-21.06614 3.3901,-27.198712 -5.65546,-10.820222 57.93378,2.584366 167.83147,7.407977 81.59144,2.722678 169.00674,5.170257 28.68054,0.387279 200.05653,5.858199 25.4851,0.202033 170.00692,4.587374 87.6017,0.951578 114.6623,0.764693 134.5742,1.068477 64.2368,0.615543 187.6107,0.06765 11.4155,0.110783 197.1643,0.09905 44.0629,0.202587 157.8455,-1.238842 145.8871,-2.204719 50.1073,-1.43659 162.8517,-3.26483 -4.7441,21.371181 11.0135,23.683479 5.9978,31.388875 9.1326,9.55146 42.051,22.97073 5.5301,19.07392 -0.8048,13.43358 -37.5408,65.81627 -2.2363,38.13354 3.7522,0.92049 4.2014,46.92549 6.5125,44.25653 20.0991,31.60035 5.9886,51.714 7.2611,22.46881 29.0166,21.59695 34.3314,14.68698 11.4716,1.14468 62.9082,10.85045 21.9518,10.62725 14.0169,38.78979 10.9947,8.92171 6.2038,15.81163 -5.1372,11.45236 -5.5019,8.79006 1.7685,11.17003 18.4056,8.357 18.7048,22.25988 31.5804,18.5264 21.6617,16.24944 6.288,11.25396 5.502,45.00629 5.006,12.37572 17.4979,18.55596 19.1634,6.98341 40.4791,20.8262 17.6102,21.22589 6.6903,1.06262 4.3791,9.72297 0.1964,25.14635 8.0846,15.99191 4.3418,28.98863 -4.0891,31.46871 -15.458,73.92823 -25.2268,15.2048 -20.96,15.5579 -8.5337,20.1367 -5.2213,43.5353 1.6,27.2144 -3.6213,9.5007 -32.0013,12.5246 -4.7814,14.0984 -8.4122,9.6915 -37.204,2.0222 -25.704,10.3878 -24.4596,28.5117 -21.2687,7.8028 -31.1219,0.9634 -27.8187,3.7774 -45.5038,14.8997 -22.2979,-5.2654 -11.5375,4.7312 -12.0053,13.2971 -6.7557,39.2812 -11.79,39.7484 0.8141,21.348 20.4078,32.0602 16.7306,5.7613 12.4637,12.3338 14.7375,23.1986 1.8341,19.9647 -1.0293,70.5781 -9.5256,15.8632 -28.2867,26.7566 -16.8055,27.3574 -0.7765,42.5052 -11.2566,33.2811"
         id="path4479"
         style="fill:#ffffff;fill-opacity:1;fill-rule:evenodd;stroke:#cb0000;stroke-width:16.16758537;stroke-miterlimit:4;stroke-dasharray:none;stroke-opacity:1"
         inkscape:connector-curvature="0"
         inkscape:export-xdpi="5.9499998"
         inkscape:export-ydpi="5.9499998" />
    </g>
    <g
       transform="matrix(11.8081,0,0,11.8081,179.679,133.875)"
       font-size="45.8333"
       font-weight="400"
       font-style="normal"
       id="g4481"
       style="font-style:normal;font-weight:400;font-size:45.83330154px;font-family:Cantarell;fill:none;fill-opacity:1;stroke:#000000;stroke-width:1;stroke-linecap:square;stroke-linejoin:bevel;stroke-opacity:1" />
    <g
       transform="matrix(11.8081,0,0,11.8081,179.679,133.875)"
       font-size="45.8333"
       font-weight="400"
       font-style="normal"
       id="g4483"
       style="font-style:normal;font-weight:400;font-size:45.83330154px;font-family:Cantarell;fill:none;fill-opacity:1;stroke:#000000;stroke-width:1;stroke-linecap:square;stroke-linejoin:bevel;stroke-opacity:1" />
    <g
       transform="matrix(11.8081,0,0,11.8081,179.679,133.875)"
       font-size="45.8333"
       font-weight="400"
       font-style="normal"
       id="g4485"
       style="font-style:normal;font-weight:400;font-size:45.83330154px;font-family:Cantarell;fill:none;fill-opacity:1;stroke:#000000;stroke-width:1;stroke-linecap:square;stroke-linejoin:bevel;stroke-opacity:1" />
    <g
       font-size="45.8333"
       font-weight="400"
       font-style="normal"
       id="g4487"
       style="font-style:normal;font-weight:400;font-size:45.83330154px;font-family:Cantarell;fill:none;fill-opacity:1;stroke:#000000;stroke-width:1;stroke-linecap:square;stroke-linejoin:bevel;stroke-opacity:1" />
    <g
       transform="matrix(11.8081,0,0,11.8081,179.679,133.875)"
       font-size="45.8333"
       font-weight="400"
       font-style="normal"
       id="g4489"
       style="font-style:normal;font-weight:400;font-size:45.83330154px;font-family:Cantarell;fill:none;fill-opacity:1;stroke:#000000;stroke-width:1;stroke-linecap:square;stroke-linejoin:bevel;stroke-opacity:1" />
    <g
       transform="matrix(11.8081,0,0,11.8081,179.679,133.875)"
       font-size="45.8333"
       font-weight="400"
       font-style="normal"
       id="g4491"
       style="font-style:normal;font-weight:400;font-size:45.83330154px;font-family:Cantarell;fill:none;fill-opacity:1;stroke:#000000;stroke-width:1;stroke-linecap:square;stroke-linejoin:bevel;stroke-opacity:1" />
    <g
       transform="scale(11.8081,11.8081)"
       font-size="45.8333"
       font-weight="400"
       font-style="normal"
       id="g4493"
       style="font-style:normal;font-weight:400;font-size:45.83330154px;font-family:Cantarell;fill:none;fill-opacity:1;stroke:#000000;stroke-width:1;stroke-linecap:square;stroke-linejoin:bevel;stroke-opacity:1" />
    <g
       transform="scale(11.8081,11.8081)"
       font-size="45.8333"
       font-weight="400"
       font-style="normal"
       id="g4495"
       style="font-style:normal;font-weight:400;font-size:45.83330154px;font-family:Cantarell;fill:none;fill-opacity:1;stroke:#000000;stroke-width:1;stroke-linecap:square;stroke-linejoin:bevel;stroke-opacity:1" />
    <g
       font-size="45.8333"
       font-weight="400"
       font-style="normal"
       id="g4497"
       style="font-style:normal;font-weight:400;font-size:45.83330154px;font-family:Cantarell;fill:none;fill-opacity:1;stroke:#000000;stroke-width:1;stroke-linecap:square;stroke-linejoin:bevel;stroke-opacity:1" />
  </g>
  <g
     transform="matrix(0.84620008,0,0,1,14.949266,-640.65056)"
     font-size="45.8333"
     font-weight="400"
     font-style="normal"
     id="g10"
     style="font-style:normal;font-weight:400;font-size:45.83330154px;font-family:Cantarell;fill:none;fill-opacity:0.26424872;fill-rule:evenodd;stroke:none;stroke-width:1;stroke-linecap:square;stroke-linejoin:bevel;stroke-opacity:1" />
  <g
     transform="matrix(9.9920152,0,0,11.8081,14.949266,-640.65056)"
     font-size="45.8333"
     font-weight="400"
     font-style="normal"
     id="g12"
     style="font-style:normal;font-weight:400;font-size:45.83330154px;font-family:Cantarell;fill:none;fill-rule:evenodd;stroke:#000000;stroke-width:1;stroke-linecap:square;stroke-linejoin:bevel;stroke-opacity:1" />
  <g
     transform="matrix(0.84598938,0,0,0.99975102,14.949266,-640.65056)"
     font-size="45.8333"
     font-weight="400"
     font-style="normal"
     id="g14"
     inkscape:export-xdpi="7.96"
     inkscape:export-ydpi="7.96"
     style="font-style:normal;font-weight:400;font-size:45.83330154px;font-family:Cantarell;fill:#ffffff;fill-opacity:1;fill-rule:evenodd;stroke:none;stroke-width:1;stroke-linecap:square;stroke-linejoin:bevel" />
  <g
     transform="matrix(9.9920152,0,0,11.8081,14.949266,-640.65056)"
     font-size="45.8333"
     font-weight="400"
     font-style="normal"
     id="g18"
     style="font-style:normal;font-weight:400;font-size:45.83330154px;font-family:Cantarell;fill:none;fill-rule:evenodd;stroke:#000000;stroke-width:1;stroke-linecap:square;stroke-linejoin:bevel;stroke-opacity:1" />
  <g
     transform="matrix(9.9920152,0,0,11.8081,14.949266,-640.65056)"
     font-size="45.8333"
     font-weight="400"
     font-style="normal"
     id="g20"
     style="font-style:normal;font-weight:400;font-size:45.83330154px;font-family:Cantarell;fill:none;fill-rule:evenodd;stroke:#000000;stroke-width:1;stroke-linecap:square;stroke-linejoin:bevel;stroke-opacity:1" />
  <g
     transform="matrix(9.9920152,0,0,11.8081,166.99365,-506.77556)"
     font-size="45.8333"
     font-weight="400"
     font-style="normal"
     id="g22"
     style="font-style:normal;font-weight:400;font-size:45.83330154px;font-family:Cantarell;fill:none;fill-rule:evenodd;stroke:#000000;stroke-width:1;stroke-linecap:square;stroke-linejoin:bevel;stroke-opacity:1" />
  <g
     transform="matrix(9.9920152,0,0,11.8081,166.99365,-506.77556)"
     font-size="45.8333"
     font-weight="400"
     font-style="normal"
     id="g24"
     style="font-style:normal;font-weight:400;font-size:45.83330154px;font-family:Cantarell;fill:none;fill-rule:evenodd;stroke:#000000;stroke-width:1;stroke-linecap:square;stroke-linejoin:bevel;stroke-opacity:1" />
  <g
     transform="matrix(9.9920152,0,0,11.8081,166.99365,-506.77556)"
     font-size="45.8333"
     font-weight="400"
     font-style="normal"
     id="g30"
     style="font-style:normal;font-weight:400;font-size:45.83330154px;font-family:Cantarell;fill:none;fill-rule:evenodd;stroke:#000000;stroke-width:1;stroke-linecap:square;stroke-linejoin:bevel;stroke-opacity:1" />
  <g
     transform="matrix(0.66538461,0,0,0.78632067,161.18371,177.48668)"
     font-size="45.8333"
     font-weight="400"
     font-style="normal"
     id="g32"
     style="font-style:normal;font-weight:400;font-size:45.83330154px;font-family:Cantarell;fill:#000000;fill-opacity:0;fill-rule:evenodd;stroke:none;stroke-width:1;stroke-linecap:square;stroke-linejoin:bevel">
    <path
       vector-effect="non-scaling-stroke"
       d="m 0,0 3119,0 0,2172 L 0,2172 0,0"
       id="path34"
       inkscape:connector-curvature="0"
       style="fill-rule:evenodd" />
  </g>
  <g
     transform="matrix(9.9920152,0,0,11.8081,166.99365,-506.77556)"
     font-size="45.8333"
     font-weight="400"
     font-style="normal"
     id="g40"
     style="font-style:normal;font-weight:400;font-size:45.83330154px;font-family:Cantarell;fill:none;fill-rule:evenodd;stroke:#000000;stroke-width:1;stroke-linecap:square;stroke-linejoin:bevel;stroke-opacity:1" />
  <g
     transform="matrix(9.9920152,0,0,11.8081,166.99365,-506.77556)"
     font-size="45.8333"
     font-weight="400"
     font-style="normal"
     id="g42"
     style="font-style:normal;font-weight:400;font-size:45.83330154px;font-family:Cantarell;fill:none;fill-rule:evenodd;stroke:#000000;stroke-width:1;stroke-linecap:square;stroke-linejoin:bevel;stroke-opacity:1" />
  <g
     transform="matrix(9.9920152,0,0,11.8081,166.99365,-506.77556)"
     font-size="45.8333"
     font-weight="400"
     font-style="normal"
     id="g44"
     style="font-style:normal;font-weight:400;font-size:45.83330154px;font-family:Cantarell;fill:none;fill-rule:evenodd;stroke:#000000;stroke-width:1;stroke-linecap:square;stroke-linejoin:bevel;stroke-opacity:1" />
  <g
     transform="matrix(0.84620008,0,0,1,14.949266,-640.65056)"
     font-size="45.8333"
     font-weight="400"
     font-style="normal"
     id="g46"
     style="font-style:normal;font-weight:400;font-size:45.83330154px;font-family:Cantarell;fill:none;fill-rule:evenodd;stroke:#000000;stroke-width:1;stroke-linecap:square;stroke-linejoin:bevel;stroke-opacity:1" />
  <g
     transform="matrix(9.9920152,0,0,11.8081,166.99365,-506.77556)"
     font-size="45.8333"
     font-weight="400"
     font-style="normal"
     id="g48"
     style="font-style:normal;font-weight:400;font-size:45.83330154px;font-family:Cantarell;fill:none;fill-rule:evenodd;stroke:#000000;stroke-width:1;stroke-linecap:square;stroke-linejoin:bevel;stroke-opacity:1" />
  <g
     transform="matrix(9.9920152,0,0,11.8081,166.99365,-506.77556)"
     font-size="45.8333"
     font-weight="400"
     font-style="normal"
     id="g50"
     style="font-style:normal;font-weight:400;font-size:45.83330154px;font-family:Cantarell;fill:none;fill-rule:evenodd;stroke:#000000;stroke-width:1;stroke-linecap:square;stroke-linejoin:bevel;stroke-opacity:1" />
  <g
     transform="matrix(9.9920152,0,0,11.8081,14.949266,-640.65056)"
     font-size="45.8333"
     font-weight="400"
     font-style="normal"
     id="g52"
     style="font-style:normal;font-weight:400;font-size:45.83330154px;font-family:Cantarell;fill:none;fill-rule:evenodd;stroke:#000000;stroke-width:1;stroke-linecap:square;stroke-linejoin:bevel;stroke-opacity:1" />
  <g
     transform="matrix(9.9920152,0,0,11.8081,14.949266,-640.65056)"
     font-size="45.8333"
     font-weight="400"
     font-style="normal"
     id="g54"
     style="font-style:normal;font-weight:400;font-size:45.83330154px;font-family:Cantarell;fill:none;fill-rule:evenodd;stroke:#000000;stroke-width:1;stroke-linecap:square;stroke-linejoin:bevel;stroke-opacity:1" />
  <g
     transform="matrix(0.84620008,0,0,1,14.949266,-640.65056)"
     font-size="45.8333"
     font-weight="400"
     font-style="normal"
     id="g56"
     style="font-style:normal;font-weight:400;font-size:45.83330154px;font-family:Cantarell;fill:none;fill-rule:evenodd;stroke:#000000;stroke-width:1;stroke-linecap:square;stroke-linejoin:bevel;stroke-opacity:1" />
  <text
     xml:space="preserve"
     style="font-style:normal;font-weight:normal;font-size:334.47738647px;line-height:125%;font-family:Sans;letter-spacing:0px;word-spacing:0px;fill:#000000;fill-opacity:1;fill-rule:evenodd;stroke:none;stroke-width:1.3333354;stroke-linecap:butt;stroke-linejoin:miter;stroke-miterlimit:4;stroke-dasharray:none;stroke-opacity:1"
     x="577.13129"
     y="1705.5813"
     id="text4188"
     sodipodi:linespacing="125%"
     transform="scale(0.95115993,1.0513479)"><tspan
       sodipodi:role="line"
       id="tspan4190"
       x="577.13129"
       y="1705.5813"
       style="font-style:italic;font-variant:normal;font-weight:normal;font-stretch:normal;font-size:752.57409668px;font-family:'Bitstream Charter';-inkscape-font-specification:'Bitstream Charter Italic';fill:#cb0000;fill-opacity:1;stroke:none;stroke-width:1.3333354;stroke-miterlimit:4;stroke-dasharray:none;stroke-opacity:1">IEM</tspan></text>
  <ellipse
     style="fill:#0000bf;fill-opacity:1;fill-rule:evenodd;stroke:none;stroke-width:11.07001781;stroke-linecap:square;stroke-linejoin:round;stroke-miterlimit:4;stroke-dasharray:none;stroke-opacity:1"
     id="path4192"
     cx="709.42896"
     cy="863.85266"
     rx="35.495144"
     ry="50.803745" />
  <ellipse
     style="fill:#0000bf;fill-opacity:1;fill-rule:evenodd;stroke:none;stroke-width:11.07001781;stroke-linecap:square;stroke-linejoin:round;stroke-miterlimit:4;stroke-dasharray:none;stroke-opacity:1"
     id="path4192-7"
     cx="658.72162"
     cy="986.29968"
     rx="35.495148"
     ry="50.803757" />
  <ellipse
     style="fill:#0000bf;fill-opacity:1;fill-rule:evenodd;stroke:none;stroke-width:11.07001781;stroke-linecap:square;stroke-linejoin:round;stroke-miterlimit:4;stroke-dasharray:none;stroke-opacity:1"
     id="path4192-4-5"
     cx="950.31641"
     cy="910.19763"
     rx="96.343964"
     ry="137.89589" />
  <g
     id="g4234"
     style="fill:none;fill-rule:evenodd;stroke:#0000bf;stroke-width:30.00004578;stroke-linecap:square;stroke-linejoin:bevel;stroke-miterlimit:4;stroke-dasharray:none;stroke-opacity:1"
     transform="matrix(0.95836737,0,0,1.3716992,-103.27836,-136.35497)">
    <path
       inkscape:connector-curvature="0"
       id="path4230"
       d="M 1136.9015,785.9431 716.3561,413.69567 800.46523,332.7723"
       style="fill:none;fill-rule:evenodd;stroke:#0000bf;stroke-width:32.27987289;stroke-linecap:butt;stroke-linejoin:miter;stroke-miterlimit:4;stroke-dasharray:none;stroke-opacity:1" />
    <path
       inkscape:connector-curvature="0"
       id="path4232"
       d="m 792.47738,481.75689 92.29125,-93.46723"
       style="fill:none;fill-rule:evenodd;stroke:#0000bf;stroke-width:40.62919998;stroke-linecap:butt;stroke-linejoin:miter;stroke-miterlimit:4;stroke-dasharray:none;stroke-opacity:1" />
  </g>
  <ellipse
     style="fill:#0000bf;fill-opacity:1;fill-rule:evenodd;stroke:none;stroke-width:11.07001781;stroke-linecap:square;stroke-linejoin:round;stroke-miterlimit:4;stroke-dasharray:none;stroke-opacity:1"
     id="path4192-4"
     cx="757.56415"
     cy="986.27869"
     rx="35.495148"
     ry="50.803757" />
  <path
     style="fill:none;fill-rule:evenodd;stroke:#0000bf;stroke-width:64.97162628;stroke-linecap:butt;stroke-linejoin:miter;stroke-miterlimit:4;stroke-dasharray:none;stroke-opacity:1"
     d="m 960.45794,917.4549 998.93466,14.5155"
     id="path4240"
     inkscape:connector-curvature="0" />
  <path
     style="fill:#0000bf;fill-opacity:1;fill-rule:evenodd;stroke:none;stroke-width:3.3333385px;stroke-linecap:butt;stroke-linejoin:miter;stroke-opacity:1"
     d="m 1888.4024,923.5505 121.6976,-97.1206 0,-107.91163 -299.1733,0 -173.952,-213.73991 146.2444,-5.41108 206.122,167.88506 115.6883,2.70554 15.212,-26.97791 30.4246,0 5.0707,32.37357 172.405,5.39552 45.6365,43.16479 -223.1122,-5.39558 10.1413,442.43763 -50.7073,0 5.0707,-145.6807 z"
     id="path4248"
     inkscape:connector-curvature="0"
     sodipodi:nodetypes="cccccccccccccccccc" />
  <ellipse
     style="fill:#0000bf;fill-opacity:1;fill-rule:evenodd;stroke:#0000bf;stroke-width:8.70675182;stroke-linecap:square;stroke-linejoin:round;stroke-miterlimit:4;stroke-dasharray:none;stroke-opacity:1"
     id="path4192-4-4-5"
     cx="2143.7539"
     cy="1126.8749"
     rx="36.104271"
     ry="72.783775" />
  <path
     style="fill:#0000bf;fill-opacity:1;fill-rule:evenodd;stroke:#0000bf;stroke-width:23.87623405;stroke-linecap:butt;stroke-linejoin:miter;stroke-miterlimit:4;stroke-dasharray:none;stroke-opacity:1"
     d="m 2018.6797,1158.7522 81.0491,109.4418"
     id="path4299-2"
     inkscape:connector-curvature="0"
     inkscape:transform-center-x="-23.33559"
     inkscape:transform-center-y="-5.1814697" />
  <path
     style="fill:#0000bf;fill-opacity:1;fill-rule:evenodd;stroke:#0000bf;stroke-width:23.14051819;stroke-linecap:butt;stroke-linejoin:miter;stroke-miterlimit:4;stroke-dasharray:none;stroke-opacity:1"
     d="m 2143.2761,1125.6382 -100.2344,46.5145"
     id="path4299"
     inkscape:connector-curvature="0"
     inkscape:transform-center-y="-19.607459"
     inkscape:transform-center-x="-2.2810284e-05" />
  <path
     style="fill:#0000bf;fill-opacity:1;fill-rule:evenodd;stroke:#0000bf;stroke-width:24.46202278;stroke-linecap:butt;stroke-linejoin:miter;stroke-miterlimit:4;stroke-dasharray:none;stroke-opacity:1"
     d="m 2054.5483,1178.1828 -190.0917,-78.8336"
     id="path4299-7"
     inkscape:connector-curvature="0" />
  <ellipse
     style="fill:#0000bf;fill-opacity:1;fill-rule:evenodd;stroke:#0000bf;stroke-width:8.70675182;stroke-linecap:square;stroke-linejoin:round;stroke-miterlimit:4;stroke-dasharray:none;stroke-opacity:1"
     id="path4192-4-4-5-6-8"
     cx="1873.1901"
     cy="1100.9696"
     rx="38.03051"
     ry="66.166504" />
  <ellipse
     style="fill:#0000bf;fill-opacity:1;fill-rule:evenodd;stroke:#0000bf;stroke-width:8.70675182;stroke-linecap:square;stroke-linejoin:round;stroke-miterlimit:4;stroke-dasharray:none;stroke-opacity:1"
     id="path4192-4-4-5-6-8-7"
     cx="2111.6716"
     cy="1282.8558"
     rx="38.03051"
     ry="66.166504" />
</svg>
