<?xml version="1.0" encoding="UTF-8" standalone="no"?>
<svg
   xmlns:dc="http://purl.org/dc/elements/1.1/"
   xmlns:cc="http://creativecommons.org/ns#"
   xmlns:rdf="http://www.w3.org/1999/02/22-rdf-syntax-ns#"
   xmlns:svg="http://www.w3.org/2000/svg"
   xmlns="http://www.w3.org/2000/svg"
   xmlns:sodipodi="http://sodipodi.sourceforge.net/DTD/sodipodi-0.dtd"
   xmlns:inkscape="http://www.inkscape.org/namespaces/inkscape"
   width="850"
   height="650"
   viewBox="0 0 2833.3334 2166.6696"
   version="1.2"
   id="svg4443"
   inkscape:version="0.91 r13725"
   sodipodi:docname="iem_logo.svg"
   inkscape:export-filename="/home/akrherz/logo2.png"
   inkscape:export-xdpi="9"
   inkscape:export-ydpi="9">
  <metadata
     id="metadata4501">
    <rdf:RDF>
      <cc:Work
         rdf:about="">
        <dc:format>image/svg+xml</dc:format>
        <dc:type
           rdf:resource="http://purl.org/dc/dcmitype/StillImage" />
        <dc:title></dc:title>
      </cc:Work>
    </rdf:RDF>
  </metadata>
  <sodipodi:namedview
     pagecolor="#ffff78"
     bordercolor="#666666"
     borderopacity="1"
     objecttolerance="10"
     gridtolerance="10"
     guidetolerance="10"
     inkscape:pageopacity="0"
     inkscape:pageshadow="2"
     inkscape:window-width="1642"
     inkscape:window-height="934"
     id="namedview4499"
     showgrid="false"
     inkscape:zoom="0.81454783"
     inkscape:cx="349.90595"
     inkscape:cy="356.08934"
     inkscape:window-x="2105"
     inkscape:window-y="138"
     inkscape:window-maximized="0"
     inkscape:current-layer="svg4443"
     fit-margin-top="0"
     fit-margin-left="0"
     fit-margin-right="0"
     fit-margin-bottom="2.7755576e-17"
     showguides="false"
     units="px" />
  <desc
     id="desc4445">Generated with Qt</desc>
  <defs
     id="defs4447" />
  <path
     style="fill:#ffffff;fill-opacity:1;fill-rule:evenodd;stroke:#c80000;stroke-width:23.33543015;stroke-miterlimit:4;stroke-dasharray:none;stroke-opacity:1"
     d="m 416.18397,1406.2017 c -8.80538,-17.8493 -32.25287,0.9752 -38.73355,-22.2965 18.28324,-3.2821 6.09521,-51.1402 -4.04448,-25.8222 0.19464,27.4145 -14.79865,8.3643 -22.40585,1.6579 -11.12583,-13.1699 13.03726,-34.4672 -7.89936,-38.2658 -14.65057,-15.2174 18.17202,-33.6455 -3.13465,-45.0837 -14.10513,-24.2193 31.05435,-9.5821 10.71746,-30.109 -19.03162,-9.6485 5.69919,-15.1324 3.39016,-29.0657 7.00909,-9.7789 6.38822,-24.3693 -5.83156,-24.4839 -11.82888,-3.5719 -0.33938,-28.8362 -15.28113,-29.0162 -4.16068,-7.3862 -11.86926,-20.4365 -9.77438,-28.9668 15.24171,-1.5749 0.0305,-20.7259 10.90712,-30.576 0.43443,-22.3063 -33.0043,4.4603 -21.39997,-23.6353 -6.24991,-15.0564 -23.94304,19.7152 -21.22344,-5.7124 18.54728,-18.4081 -10.77984,-12.0099 -14.36245,-23.4388 -4.60978,-15.1505 11.983,-42.7986 -7.28414,-44.1504 -8.04838,-6.784 -18.21239,-16.8601 -21.98919,-29.99887 5.1617,-11.4486 -12.02528,-25.53263 4.83794,-24.20098 10.7369,-6.28093 1.55905,-20.30155 -1.36389,-29.97505 -15.91115,-5.37753 -6.61794,-39.10954 -26.05159,-40.35416 -8.85908,-11.08875 4.0634,-24.10236 -2.94026,-37.16035 19.07339,-16.54182 16.82233,-60.73877 -9.7084,-52.77382 -14.85623,5.07096 -28.24027,-17.66137 -19.48765,-13.50064 7.11296,-11.86686 -11.83948,-40.78038 -3.62546,-32.13606 2.64345,-4.85927 7.86911,-2.69995 1.37614,-9.09206 2.80752,-4.20404 -5.45611,-8.10598 -5.33756,-18.0351 -2.77543,-4.37643 -11.79075,6.02185 -6.59329,-3.07093 10.35638,-6.06927 -6.75577,-17.6441 -8.03121,-25.74933 -7.38876,9.14623 -3.588,-14.52841 -10.38064,-5.50391 -1.60392,-2.41262 -0.4715,-3.88121 -1.0083,-7.17512 -1.82566,-4.1262 -11.49551,-3.1608 -7.26771,-3.66119 1.41775,-9.52967 -10.24058,0.10518 -4.24942,-7.34715 -4.45755,2.55339 -9.7611,-2.65436 -8.71694,-4.75419 3.31869,-7.80097 -1.68531,-8.83493 -1.78906,-11.31567 -3.44315,-5.61611 -1.24224,-3.15783 -0.25112,-5.44908 -3.62597,-4.09651 9.81547,-12.79677 1.87511,-10.94513 -6.36776,-9.7427 0.593,-6.84785 5.04329,-16.61021 2.69939,2.84845 8.02488,-4.53237 6.38852,-9.01831 4.50016,-0.26655 -0.002,-11.50669 5.06533,-12.66057 4.90432,-6.37318 -1.02733,-10.93397 6.96687,-9.34832 1.88335,11.65869 1.86587,-4.94262 7.27286,-1.18912 -7.17691,-7.95596 4.90925,-4.73052 2.24028,-11.29315 -5.08763,-1.89244 0.7942,-9.39626 1.15718,-13.93554 -2.14903,-5.42253 11.87888,-6.63495 1.07421,-10.80806 -2.01178,-2.51868 0.8997,-8.43309 -0.66562,-14.65897 2.6087,-0.0553 7.30608,-6.58006 8.96631,-6.50699 -1.30623,-7.21215 11.10734,-11.14798 4.20393,-20.92305 -10.81436,-3.04764 -1.32737,-13.79484 4.62157,-18.00674 4.02971,-11.63444 -11.59741,-11.1854 -6.75778,-22.5202 -7.37276,4.71993 1.03947,-7.93275 5.23911,-5.99737 6.86659,-6.68363 19.84507,-6.17787 16.51985,-22.66228 -5.86552,-3.37658 4.23811,-6.96045 4.93165,-13.37435 5.80872,-10.74266 -5.30944,-20.2077 -8.77831,-22.78795 -1.1103,-4.78951 0.27703,-12.02186 -0.5078,-20.61494 -6.33792,-3.65405 2.88964,-23.64836 -8.26727,-23.15167 -8.61046,5.4814 -12.58626,0.41914 -21.37647,-1.41032 -11.66521,6.30537 -12.40607,-13.82168 -3.03303,-13.7539 0.77075,-10.26776 -17.28354,-8.96591 -12.7386,-15.23972 5.54908,-5.06585 -1.66603,-14.02967 -1.14337,-12.75112 8.75397,-1.65683 17.39067,5.6673 22.85344,-4.78116 1.94371,-6.16394 -2.21999,-10.58387 -1.94173,-19.64318 4.18975,-3.30498 1.24781,-13.23262 1.884,-17.85778 3.18416,-3.01748 3.2107,-14.99563 -1.10035,-16.2784 -6.86119,0.62156 -11.4917,-9.46216 -16.30018,-15.16049 -0.0285,-9.12221 -11.76594,-5.35966 -11.99027,-17.1127 1.36901,-7.69008 9.72174,-6.69547 6.80141,-16.92925 3.07336,-4.86619 -3.36918,-7.42683 -5.23792,-12.63336 701.85968,0.39946 1405.06004,-0.0388 2106.54434,0.28633 -0.2701,19.64013 -12.2294,33.09339 5.7454,47.37469 9.6803,16.91998 -12.3234,29.98291 0.5126,41.78045 21.003,4.4971 46.0288,22.21786 52.2121,52.6668 13.4367,11.87209 -21.1566,27.97696 -22.1837,43.01987 -5.2175,22.24582 -25.6801,27.00079 -19.8155,53.18517 -5.4538,40.05946 15.5532,74.71712 12.1581,112.99778 18.4772,0.59183 19.1044,31.42428 22.436,45.11805 6.6647,6.07214 3.7883,33.41263 10.1649,42.33639 -3.644,5.59451 6.0007,13.79777 11.5152,13.88313 5.7564,11.08546 18.1291,15.02197 26.212,24.37215 32.0981,15.7 68.3297,19.5713 101.2912,34.90061 4.4882,28.79271 27.5674,45.66994 25.5937,74.38187 -20.9995,34.83447 29.8351,24.67973 32.348,50.99245 14.2055,12.13507 31.5659,19.06309 42.9114,37.89854 12.5949,12.72514 14.3999,28.29896 6.9654,47.07406 14.6198,52.95167 59.7108,47.87059 87.4817,76.29852 2.1381,19.3205 27.4942,12.002 16.0151,40.5021 -5.3865,25.0819 21.4389,42.7235 3.9884,65.8697 -5.9177,16.5626 9.4182,37.6513 -5.5502,55.5989 -3.477,14.3699 -4.7879,29.7128 -6.836,42.4673 -15.1336,13.4797 -49.5886,16.5882 -50.3328,51.4846 5.0814,17.0346 -11.8144,22.2258 -10.5393,40.8216 3.9347,24.783 -0.439,46.4502 -21.329,44.1624 -16.9099,18.9151 -34.5344,43.2567 -57.7784,27.4799 -24.2411,3.4927 -34.3264,43.8065 -60.9197,41.9516 -26.3235,9.2741 -55.5898,-12.9208 -78.8883,14.4365 -14.7579,14.0015 -29.1667,-11.0059 -43.8233,3.2556 -16.7428,-2.4722 -12.5656,26.0035 -20.7359,38.6959 0.7455,27.241 -10.757,45.248 -18.2293,67.5396 9.9702,15.0677 21.4217,34.9951 32.0875,47.8971 17.845,-8.3391 27.7314,27.8331 32.9419,45.2556 2.5394,23.2765 1.2369,48.1271 -2.775,69.4559 5.8474,32.8546 -20.694,32.4375 -29.4594,54.4202 -6.6077,16.2886 -28.084,26.052 -25.04,47.6882 3.2499,21.0573 -13.98,37.8589 -7.4378,60.2427 -8.1486,41.6628 -41.9105,29.6063 -63.7517,37.161 -22.1287,2.6418 -42.1117,25.734 -50.902,52.9217 19.2121,8.327 18.2584,37.9172 9.57,59.1738 11.1836,22.8888 -3.7442,44.2248 -18.3752,35.1826 -5.649,-5.8248 -15.0006,12.4625 -14.2578,-1.3145 -13.3629,11.0534 -5.2808,-17.0171 -14.7301,-10.4552 -7.6009,-2.5894 -11.0275,-8.7951 -7.1532,-18.1935 -11.1899,1.2897 7.1234,-21.1996 -8.911,-14.4343 -16.022,2.7963 -16.5551,-26.001 -30.3704,-30.6865 12.7039,-37.0198 -36.4454,-9.211 -25.447,-41.8408 -26.2073,-36.9821 -65.8876,-8.5916 -99.1593,-14.9253 -347.4872,12.7137 -695.0442,18.3053 -1042.73927,20.7406 -151.18472,-3.0761 -304.9707,-5.1361 -454.62357,-8.7725 15.24141,-10.493 -5.48232,-19.4242 -3.90317,-35.0231 -7.86757,-17.3707 -29.4446,-7.5133 -30.54251,-33.7458 -15.07951,-3.9092 -18.12476,-32.4569 -1.58687,-36.67 17.12563,-5.7338 -1.16253,-27.45 7.62613,-41.9768 -10.94591,-18.6836 3.66634,-21.5314 10.64462,-31.7922 -4.41929,-14.0251 -18.90184,-27.9187 -7.57785,-46.2384 -2.2568,-16.4127 -24.09509,-17.4919 -11.7985,-39.6429 -6.66202,-8.1361 -13.0182,-19.2575 -1.98889,-28.0587 5.43943,-16.0854 -17.59642,-50.0465 1.05164,-50.3169 23.3664,-12.2203 -29.96322,-26.5852 -25.09375,-16.9031 11.8638,-32.4844 -3.3716,-31.1627 3.91418,-45.5013 -17.42264,-11.7375 13.75234,-27.4546 1.37038,-4.017 23.24471,11.1731 15.63382,-37.4487 -5.716,-25.5883 -23.62709,-13.4691 4.75709,-24.8734 -1.83424,-48.3881 -0.64687,-11.7521 0.79186,-17.5321 4.49922,-27.7015"
     id="path38"
     inkscape:connector-curvature="0" />
  <g
     id="g4449"
     style="fill:none;fill-opacity:1;fill-rule:evenodd;stroke:#000000;stroke-width:1;stroke-linecap:square;stroke-linejoin:bevel"
     transform="matrix(0.95987673,0,0,0.95987673,-281.40928,76.061543)">
    <g
       font-size="45.8333"
       font-weight="400"
       font-style="normal"
       id="g4451"
       style="font-style:normal;font-weight:400;font-size:45.83330154px;font-family:Cantarell;fill:none;fill-opacity:1;stroke:#000000;stroke-width:1;stroke-linecap:square;stroke-linejoin:bevel;stroke-opacity:1" />
    <g
       transform="scale(11.8081,11.8081)"
       font-size="45.8333"
       font-weight="400"
       font-style="normal"
       id="g4453"
       style="font-style:normal;font-weight:400;font-size:45.83330154px;font-family:Cantarell;fill:none;fill-opacity:1;stroke:#000000;stroke-width:1;stroke-linecap:square;stroke-linejoin:bevel;stroke-opacity:1" />
    <g
       transform="scale(0.999751,0.999751)"
       font-size="45.8333"
       font-weight="400"
       font-style="normal"
       id="g4455"
       style="font-style:normal;font-weight:400;font-size:45.83330154px;font-family:Cantarell;fill:none;fill-opacity:1;stroke:none">
      <path
         vector-effect="none"
         d="m -1,-1 3509.87,0 0,2482.31 L -1,2481.31 -1,-1"
         id="path4457"
         style="fill:none;fill-opacity:1;fill-rule:evenodd"
         inkscape:connector-curvature="0" />
    </g>
    <g
       transform="scale(11.8081,11.8081)"
       font-size="45.8333"
       font-weight="400"
       font-style="normal"
       id="g4459"
       style="font-style:normal;font-weight:400;font-size:45.83330154px;font-family:Cantarell;fill:none;fill-opacity:1;stroke:#000000;stroke-width:1;stroke-linecap:square;stroke-linejoin:bevel;stroke-opacity:1" />
    <g
       transform="scale(11.8081,11.8081)"
       font-size="45.8333"
       font-weight="400"
       font-style="normal"
       id="g4461"
       style="font-style:normal;font-weight:400;font-size:45.83330154px;font-family:Cantarell;fill:none;fill-opacity:1;stroke:#000000;stroke-width:1;stroke-linecap:square;stroke-linejoin:bevel;stroke-opacity:1" />
    <g
       transform="matrix(11.8081,0,0,11.8081,179.679,133.875)"
       font-size="45.8333"
       font-weight="400"
       font-style="normal"
       id="g4463"
       style="font-style:normal;font-weight:400;font-size:45.83330154px;font-family:Cantarell;fill:none;fill-opacity:1;stroke:#000000;stroke-width:1;stroke-linecap:square;stroke-linejoin:bevel;stroke-opacity:1" />
    <g
       transform="matrix(11.8081,0,0,11.8081,179.679,133.875)"
       font-size="45.8333"
       font-weight="400"
       font-style="normal"
       id="g4465"
       style="font-style:normal;font-weight:400;font-size:45.83330154px;font-family:Cantarell;fill:none;fill-opacity:1;stroke:#000000;stroke-width:1;stroke-linecap:square;stroke-linejoin:bevel;stroke-opacity:1" />
    <g
       transform="matrix(11.8081,0,0,11.8081,179.679,133.875)"
       font-size="45.8333"
       font-weight="400"
       font-style="normal"
       id="g4467"
       style="font-style:normal;font-weight:400;font-size:45.83330154px;font-family:Cantarell;fill:none;fill-opacity:1;stroke:none" />
    <g
       transform="matrix(11.8081,0,0,11.8081,179.679,133.875)"
       font-size="45.8333"
       font-weight="400"
       font-style="normal"
       id="g4471"
       style="font-style:normal;font-weight:400;font-size:45.83330154px;font-family:Cantarell;fill:none;fill-opacity:1;stroke:#000000;stroke-width:1;stroke-linecap:square;stroke-linejoin:bevel;stroke-opacity:1" />
    <g
       transform="matrix(0.999751,0,0,0.999751,179.679,133.875)"
       font-size="45.8333"
       font-weight="400"
       font-style="normal"
       id="g4473"
       style="font-style:normal;font-weight:400;font-size:45.83330154px;font-family:Cantarell;fill:none;fill-opacity:1;stroke:none">
      <path
         vector-effect="non-scaling-stroke"
         d="m 0,0 3119,0 0,2172 L 0,2172 0,0"
         id="path4475"
         style="fill:none;fill-opacity:1;fill-rule:evenodd"
         inkscape:connector-curvature="0" />
    </g>
    <g
       transform="matrix(0.999751,0,0,0.999751,179.679,133.875)"
       font-size="45.8333"
       font-weight="400"
       font-style="normal"
       id="g4477"
       style="font-style:normal;font-weight:400;font-size:45.83330154px;font-family:Cantarell;fill:none;fill-opacity:1;stroke:#000000;stroke-width:3.07086992;stroke-linecap:square;stroke-linejoin:bevel;stroke-opacity:1" />
    <g
       transform="matrix(11.8081,0,0,11.8081,179.679,133.875)"
       font-size="45.8333"
       font-weight="400"
       font-style="normal"
       id="g4481"
       style="font-style:normal;font-weight:400;font-size:45.83330154px;font-family:Cantarell;fill:none;fill-opacity:1;stroke:#000000;stroke-width:1;stroke-linecap:square;stroke-linejoin:bevel;stroke-opacity:1" />
    <g
       transform="matrix(11.8081,0,0,11.8081,179.679,133.875)"
       font-size="45.8333"
       font-weight="400"
       font-style="normal"
       id="g4483"
       style="font-style:normal;font-weight:400;font-size:45.83330154px;font-family:Cantarell;fill:none;fill-opacity:1;stroke:#000000;stroke-width:1;stroke-linecap:square;stroke-linejoin:bevel;stroke-opacity:1" />
    <g
       transform="matrix(11.8081,0,0,11.8081,179.679,133.875)"
       font-size="45.8333"
       font-weight="400"
       font-style="normal"
       id="g4485"
       style="font-style:normal;font-weight:400;font-size:45.83330154px;font-family:Cantarell;fill:none;fill-opacity:1;stroke:#000000;stroke-width:1;stroke-linecap:square;stroke-linejoin:bevel;stroke-opacity:1" />
    <g
       font-size="45.8333"
       font-weight="400"
       font-style="normal"
       id="g4487"
       style="font-style:normal;font-weight:400;font-size:45.83330154px;font-family:Cantarell;fill:none;fill-opacity:1;stroke:#000000;stroke-width:1;stroke-linecap:square;stroke-linejoin:bevel;stroke-opacity:1" />
    <g
       transform="matrix(11.8081,0,0,11.8081,179.679,133.875)"
       font-size="45.8333"
       font-weight="400"
       font-style="normal"
       id="g4489"
       style="font-style:normal;font-weight:400;font-size:45.83330154px;font-family:Cantarell;fill:none;fill-opacity:1;stroke:#000000;stroke-width:1;stroke-linecap:square;stroke-linejoin:bevel;stroke-opacity:1" />
    <g
       transform="matrix(11.8081,0,0,11.8081,179.679,133.875)"
       font-size="45.8333"
       font-weight="400"
       font-style="normal"
       id="g4491"
       style="font-style:normal;font-weight:400;font-size:45.83330154px;font-family:Cantarell;fill:none;fill-opacity:1;stroke:#000000;stroke-width:1;stroke-linecap:square;stroke-linejoin:bevel;stroke-opacity:1" />
    <g
       transform="scale(11.8081,11.8081)"
       font-size="45.8333"
       font-weight="400"
       font-style="normal"
       id="g4493"
       style="font-style:normal;font-weight:400;font-size:45.83330154px;font-family:Cantarell;fill:none;fill-opacity:1;stroke:#000000;stroke-width:1;stroke-linecap:square;stroke-linejoin:bevel;stroke-opacity:1" />
    <g
       transform="scale(11.8081,11.8081)"
       font-size="45.8333"
       font-weight="400"
       font-style="normal"
       id="g4495"
       style="font-style:normal;font-weight:400;font-size:45.83330154px;font-family:Cantarell;fill:none;fill-opacity:1;stroke:#000000;stroke-width:1;stroke-linecap:square;stroke-linejoin:bevel;stroke-opacity:1" />
    <g
       font-size="45.8333"
       font-weight="400"
       font-style="normal"
       id="g4497"
       style="font-style:normal;font-weight:400;font-size:45.83330154px;font-family:Cantarell;fill:none;fill-opacity:1;stroke:#000000;stroke-width:1;stroke-linecap:square;stroke-linejoin:bevel;stroke-opacity:1" />
  </g>
  <g
     transform="matrix(0.84620008,0,0,1,14.949266,-640.65056)"
     font-size="45.8333"
     font-weight="400"
     font-style="normal"
     id="g10"
     style="font-style:normal;font-weight:400;font-size:45.83330154px;font-family:Cantarell;fill:none;fill-opacity:0.26424872;fill-rule:evenodd;stroke:none;stroke-width:1;stroke-linecap:square;stroke-linejoin:bevel;stroke-opacity:1" />
  <g
     transform="matrix(9.9920152,0,0,11.8081,14.949266,-640.65056)"
     font-size="45.8333"
     font-weight="400"
     font-style="normal"
     id="g12"
     style="font-style:normal;font-weight:400;font-size:45.83330154px;font-family:Cantarell;fill:none;fill-rule:evenodd;stroke:#000000;stroke-width:1;stroke-linecap:square;stroke-linejoin:bevel;stroke-opacity:1" />
  <g
     transform="matrix(0.84598938,0,0,0.99975102,14.949266,-640.65056)"
     font-size="45.8333"
     font-weight="400"
     font-style="normal"
     id="g14"
     inkscape:export-xdpi="7.96"
     inkscape:export-ydpi="7.96"
     style="font-style:normal;font-weight:400;font-size:45.83330154px;font-family:Cantarell;fill:#ffffff;fill-opacity:1;fill-rule:evenodd;stroke:none;stroke-width:1;stroke-linecap:square;stroke-linejoin:bevel" />
  <g
     transform="matrix(9.9920152,0,0,11.8081,14.949266,-640.65056)"
     font-size="45.8333"
     font-weight="400"
     font-style="normal"
     id="g18"
     style="font-style:normal;font-weight:400;font-size:45.83330154px;font-family:Cantarell;fill:none;fill-rule:evenodd;stroke:#000000;stroke-width:1;stroke-linecap:square;stroke-linejoin:bevel;stroke-opacity:1" />
  <g
     transform="matrix(9.9920152,0,0,11.8081,14.949266,-640.65056)"
     font-size="45.8333"
     font-weight="400"
     font-style="normal"
     id="g20"
     style="font-style:normal;font-weight:400;font-size:45.83330154px;font-family:Cantarell;fill:none;fill-rule:evenodd;stroke:#000000;stroke-width:1;stroke-linecap:square;stroke-linejoin:bevel;stroke-opacity:1" />
  <g
     transform="matrix(9.9920152,0,0,11.8081,166.99365,-506.77556)"
     font-size="45.8333"
     font-weight="400"
     font-style="normal"
     id="g22"
     style="font-style:normal;font-weight:400;font-size:45.83330154px;font-family:Cantarell;fill:none;fill-rule:evenodd;stroke:#000000;stroke-width:1;stroke-linecap:square;stroke-linejoin:bevel;stroke-opacity:1" />
  <g
     transform="matrix(9.9920152,0,0,11.8081,166.99365,-506.77556)"
     font-size="45.8333"
     font-weight="400"
     font-style="normal"
     id="g24"
     style="font-style:normal;font-weight:400;font-size:45.83330154px;font-family:Cantarell;fill:none;fill-rule:evenodd;stroke:#000000;stroke-width:1;stroke-linecap:square;stroke-linejoin:bevel;stroke-opacity:1" />
  <g
     transform="matrix(9.9920152,0,0,11.8081,166.99365,-506.77556)"
     font-size="45.8333"
     font-weight="400"
     font-style="normal"
     id="g30"
     style="font-style:normal;font-weight:400;font-size:45.83330154px;font-family:Cantarell;fill:none;fill-rule:evenodd;stroke:#000000;stroke-width:1;stroke-linecap:square;stroke-linejoin:bevel;stroke-opacity:1" />
  <g
     transform="matrix(0.66538461,0,0,0.78632067,161.18371,177.48668)"
     font-size="45.8333"
     font-weight="400"
     font-style="normal"
     id="g32"
     style="font-style:normal;font-weight:400;font-size:45.83330154px;font-family:Cantarell;fill:#000000;fill-opacity:0;fill-rule:evenodd;stroke:none;stroke-width:1;stroke-linecap:square;stroke-linejoin:bevel">
    <path
       vector-effect="non-scaling-stroke"
       d="m 0,0 3119,0 0,2172 L 0,2172 0,0"
       id="path34"
       inkscape:connector-curvature="0"
       style="fill-rule:evenodd" />
  </g>
  <g
     transform="matrix(9.9920152,0,0,11.8081,166.99365,-506.77556)"
     font-size="45.8333"
     font-weight="400"
     font-style="normal"
     id="g40"
     style="font-style:normal;font-weight:400;font-size:45.83330154px;font-family:Cantarell;fill:none;fill-rule:evenodd;stroke:#000000;stroke-width:1;stroke-linecap:square;stroke-linejoin:bevel;stroke-opacity:1" />
  <g
     transform="matrix(9.9920152,0,0,11.8081,166.99365,-506.77556)"
     font-size="45.8333"
     font-weight="400"
     font-style="normal"
     id="g42"
     style="font-style:normal;font-weight:400;font-size:45.83330154px;font-family:Cantarell;fill:none;fill-rule:evenodd;stroke:#000000;stroke-width:1;stroke-linecap:square;stroke-linejoin:bevel;stroke-opacity:1" />
  <g
     transform="matrix(9.9920152,0,0,11.8081,166.99365,-506.77556)"
     font-size="45.8333"
     font-weight="400"
     font-style="normal"
     id="g44"
     style="font-style:normal;font-weight:400;font-size:45.83330154px;font-family:Cantarell;fill:none;fill-rule:evenodd;stroke:#000000;stroke-width:1;stroke-linecap:square;stroke-linejoin:bevel;stroke-opacity:1" />
  <g
     transform="matrix(0.84620008,0,0,1,14.949266,-640.65056)"
     font-size="45.8333"
     font-weight="400"
     font-style="normal"
     id="g46"
     style="font-style:normal;font-weight:400;font-size:45.83330154px;font-family:Cantarell;fill:none;fill-rule:evenodd;stroke:#000000;stroke-width:1;stroke-linecap:square;stroke-linejoin:bevel;stroke-opacity:1" />
  <g
     transform="matrix(9.9920152,0,0,11.8081,166.99365,-506.77556)"
     font-size="45.8333"
     font-weight="400"
     font-style="normal"
     id="g48"
     style="font-style:normal;font-weight:400;font-size:45.83330154px;font-family:Cantarell;fill:none;fill-rule:evenodd;stroke:#000000;stroke-width:1;stroke-linecap:square;stroke-linejoin:bevel;stroke-opacity:1" />
  <g
     transform="matrix(9.9920152,0,0,11.8081,166.99365,-506.77556)"
     font-size="45.8333"
     font-weight="400"
     font-style="normal"
     id="g50"
     style="font-style:normal;font-weight:400;font-size:45.83330154px;font-family:Cantarell;fill:none;fill-rule:evenodd;stroke:#000000;stroke-width:1;stroke-linecap:square;stroke-linejoin:bevel;stroke-opacity:1" />
  <g
     transform="matrix(9.9920152,0,0,11.8081,14.949266,-640.65056)"
     font-size="45.8333"
     font-weight="400"
     font-style="normal"
     id="g52"
     style="font-style:normal;font-weight:400;font-size:45.83330154px;font-family:Cantarell;fill:none;fill-rule:evenodd;stroke:#000000;stroke-width:1;stroke-linecap:square;stroke-linejoin:bevel;stroke-opacity:1" />
  <g
     transform="matrix(9.9920152,0,0,11.8081,14.949266,-640.65056)"
     font-size="45.8333"
     font-weight="400"
     font-style="normal"
     id="g54"
     style="font-style:normal;font-weight:400;font-size:45.83330154px;font-family:Cantarell;fill:none;fill-rule:evenodd;stroke:#000000;stroke-width:1;stroke-linecap:square;stroke-linejoin:bevel;stroke-opacity:1" />
  <g
     transform="matrix(0.84620008,0,0,1,14.949266,-640.65056)"
     font-size="45.8333"
     font-weight="400"
     font-style="normal"
     id="g56"
     style="font-style:normal;font-weight:400;font-size:45.83330154px;font-family:Cantarell;fill:none;fill-rule:evenodd;stroke:#000000;stroke-width:1;stroke-linecap:square;stroke-linejoin:bevel;stroke-opacity:1" />
  <text
     xml:space="preserve"
     style="font-style:normal;font-weight:normal;font-size:334.47738647px;line-height:125%;font-family:Sans;letter-spacing:0px;word-spacing:0px;fill:#000000;fill-opacity:1;fill-rule:evenodd;stroke:none;stroke-width:1.3333354;stroke-linecap:butt;stroke-linejoin:miter;stroke-miterlimit:4;stroke-dasharray:none;stroke-opacity:1"
     x="598.1582"
     y="1730.9456"
     id="text4188"
     sodipodi:linespacing="125%"
     transform="scale(0.95115993,1.0513479)"><tspan
       sodipodi:role="line"
       id="tspan4190"
       x="598.1582"
       y="1730.9456"
       style="font-style:italic;font-variant:normal;font-weight:normal;font-stretch:normal;font-size:752.57409668px;font-family:'Bitstream Charter';-inkscape-font-specification:'Bitstream Charter Italic';fill:#cb0000;fill-opacity:1;stroke:none;stroke-width:1.3333354;stroke-miterlimit:4;stroke-dasharray:none;stroke-opacity:1">IEM</tspan></text>
  <ellipse
     style="fill:#0000bf;fill-opacity:1;fill-rule:evenodd;stroke:none;stroke-width:11.07001781;stroke-linecap:square;stroke-linejoin:round;stroke-miterlimit:4;stroke-dasharray:none;stroke-opacity:1"
     id="path4192"
     cx="709.42896"
     cy="863.85266"
     rx="35.495144"
     ry="50.803745" />
  <ellipse
     style="fill:#0000bf;fill-opacity:1;fill-rule:evenodd;stroke:none;stroke-width:11.07001781;stroke-linecap:square;stroke-linejoin:round;stroke-miterlimit:4;stroke-dasharray:none;stroke-opacity:1"
     id="path4192-7"
     cx="658.72162"
     cy="986.29968"
     rx="35.495148"
     ry="50.803757" />
  <ellipse
     style="fill:#0000bf;fill-opacity:1;fill-rule:evenodd;stroke:none;stroke-width:11.07001781;stroke-linecap:square;stroke-linejoin:round;stroke-miterlimit:4;stroke-dasharray:none;stroke-opacity:1"
     id="path4192-4-5"
     cx="950.31641"
     cy="910.19763"
     rx="96.343964"
     ry="137.89589" />
  <g
     id="g4234"
     style="fill:none;fill-rule:evenodd;stroke:#0000bf;stroke-width:30.00004578;stroke-linecap:square;stroke-linejoin:bevel;stroke-miterlimit:4;stroke-dasharray:none;stroke-opacity:1"
     transform="matrix(0.95836737,0,0,1.3716992,-103.27836,-136.35497)">
    <path
       inkscape:connector-curvature="0"
       id="path4230"
       d="M 1136.9015,785.9431 716.3561,413.69567 800.46523,332.7723"
       style="fill:none;fill-rule:evenodd;stroke:#0000bf;stroke-width:32.27987289;stroke-linecap:butt;stroke-linejoin:miter;stroke-miterlimit:4;stroke-dasharray:none;stroke-opacity:1" />
    <path
       inkscape:connector-curvature="0"
       id="path4232"
       d="m 792.47738,481.75689 92.29125,-93.46723"
       style="fill:none;fill-rule:evenodd;stroke:#0000bf;stroke-width:40.62919998;stroke-linecap:butt;stroke-linejoin:miter;stroke-miterlimit:4;stroke-dasharray:none;stroke-opacity:1" />
  </g>
  <ellipse
     style="fill:#0000bf;fill-opacity:1;fill-rule:evenodd;stroke:none;stroke-width:11.07001781;stroke-linecap:square;stroke-linejoin:round;stroke-miterlimit:4;stroke-dasharray:none;stroke-opacity:1"
     id="path4192-4"
     cx="757.56415"
     cy="986.27869"
     rx="35.495148"
     ry="50.803757" />
  <path
     style="fill:none;fill-rule:evenodd;stroke:#0000bf;stroke-width:64.97162628;stroke-linecap:butt;stroke-linejoin:miter;stroke-miterlimit:4;stroke-dasharray:none;stroke-opacity:1"
     d="m 960.45794,917.4549 998.93466,14.5155"
     id="path4240"
     inkscape:connector-curvature="0" />
  <path
     style="fill:#0000bf;fill-opacity:1;fill-rule:evenodd;stroke:none;stroke-width:3.3333385px;stroke-linecap:butt;stroke-linejoin:miter;stroke-opacity:1"
     d="m 1888.4024,923.5505 121.6976,-97.1206 0,-107.91163 -299.1733,0 -173.952,-213.73991 146.2444,-5.41108 206.122,167.88506 115.6883,2.70554 15.212,-26.97791 30.4246,0 5.0707,32.37357 172.405,5.39552 45.6365,43.16479 -223.1122,-5.39558 10.1413,442.43763 -50.7073,0 5.0707,-145.6807 z"
     id="path4248"
     inkscape:connector-curvature="0"
     sodipodi:nodetypes="cccccccccccccccccc" />
  <ellipse
     style="fill:#0000bf;fill-opacity:1;fill-rule:evenodd;stroke:#0000bf;stroke-width:8.70675182;stroke-linecap:square;stroke-linejoin:round;stroke-miterlimit:4;stroke-dasharray:none;stroke-opacity:1"
     id="path4192-4-4-5"
     cx="2143.7539"
     cy="1126.8749"
     rx="36.104271"
     ry="72.783775" />
  <path
     style="fill:#0000bf;fill-opacity:1;fill-rule:evenodd;stroke:#0000bf;stroke-width:23.87623405;stroke-linecap:butt;stroke-linejoin:miter;stroke-miterlimit:4;stroke-dasharray:none;stroke-opacity:1"
     d="m 2018.6797,1158.7522 81.0491,109.4418"
     id="path4299-2"
     inkscape:connector-curvature="0"
     inkscape:transform-center-x="-23.33559"
     inkscape:transform-center-y="-5.1814697" />
  <path
     style="fill:#0000bf;fill-opacity:1;fill-rule:evenodd;stroke:#0000bf;stroke-width:23.14051819;stroke-linecap:butt;stroke-linejoin:miter;stroke-miterlimit:4;stroke-dasharray:none;stroke-opacity:1"
     d="m 2143.2761,1125.6382 -100.2344,46.5145"
     id="path4299"
     inkscape:connector-curvature="0"
     inkscape:transform-center-y="-19.607459"
     inkscape:transform-center-x="-2.2810284e-05" />
  <path
     style="fill:#0000bf;fill-opacity:1;fill-rule:evenodd;stroke:#0000bf;stroke-width:24.46202278;stroke-linecap:butt;stroke-linejoin:miter;stroke-miterlimit:4;stroke-dasharray:none;stroke-opacity:1"
     d="m 2054.5483,1178.1828 -190.0917,-78.8336"
     id="path4299-7"
     inkscape:connector-curvature="0" />
  <ellipse
     style="fill:#0000bf;fill-opacity:1;fill-rule:evenodd;stroke:#0000bf;stroke-width:8.70675182;stroke-linecap:square;stroke-linejoin:round;stroke-miterlimit:4;stroke-dasharray:none;stroke-opacity:1"
     id="path4192-4-4-5-6-8"
     cx="1873.1901"
     cy="1100.9696"
     rx="38.03051"
     ry="66.166504" />
  <ellipse
     style="fill:#0000bf;fill-opacity:1;fill-rule:evenodd;stroke:#0000bf;stroke-width:8.70675182;stroke-linecap:square;stroke-linejoin:round;stroke-miterlimit:4;stroke-dasharray:none;stroke-opacity:1"
     id="path4192-4-4-5-6-8-7"
     cx="2111.6716"
     cy="1282.8558"
     rx="38.03051"
     ry="66.166504" />
</svg>
