<?xml version="1.0" encoding="UTF-8" standalone="no"?>
<svg xmlns:rdf="http://www.w3.org/1999/02/22-rdf-syntax-ns#" xmlns="http://www.w3.org/2000/svg" height="104.71pt" width="152.08pt" version="1.1" xmlns:cc="http://creativecommons.org/ns#" xmlns:xlink="http://www.w3.org/1999/xlink" viewBox="0 0 152.07812 104.70703" xmlns:dc="http://purl.org/dc/elements/1.1/">
 <g>
   <path d="m92.062 79.461v-54.227h10.563l4.05-25.234h-61.787l4.0508 25.234h10.609v54.227h-10.453l-4.0469 25.246h61.504l-4.05-25.249z" fill="#fdc82f"/>
   <path d="m99.348 21.391 2.8164-17.547h-52.773l2.8164 17.547h11.176v61.914h-11.016l-2.8164 17.559h52.492l-2.8164-17.559h-11.004v-61.914z" fill="#a71930"/>
   <path d="m127.71 4.8047l-11.37 10.961h-21.584v23.658c-3.061 0.003-6.121 0.063-9.18 0.18-2.983 11.645-5.967 23.349-8.945 35.107-1.968 0.146-3.94 0.318-5.902 0.514 0.561 3.798 1.127 7.601 1.689 11.41 5.019-0.459 10.053-0.767 15.082-0.918 0.737-3.281 1.475-6.562 2.217-9.838 1.679-0.036 3.359-0.054 5.039-0.057v39.068h-21.371l-11.446 11.19h65.611l-3.52-21.95-7.69 10.76h-16.877l10.817-10.76v-18.058c2.34 0.144 4.68 0.318 7.02 0.53 0.56-3.809 1.13-7.613 1.69-11.416-1.23-0.123-2.47-0.23-3.7-0.332 0.44-3.223 0.88-6.446 1.31-9.668-1.96-0.171-3.91-0.317-5.88-0.444-0.15-0.557-0.29-1.109-0.44-1.666v-6.91c3.97 0.243 7.94 0.579 11.9 1.012-0.09-1.573-0.17-3.151-0.25-4.723 0.99 0.107 1.99 0.225 2.99 0.342v23.033c-1.06-0.127-2.13-0.25-3.19-0.367-0.63 3.789-1.26 7.584-1.89 11.383 7.85 0.786 15.66 1.944 23.43 3.482-0.63-3.984-1.25-7.961-1.87-11.935-1.25-0.24-2.5-0.462-3.74-0.682v-23.033c1 0.176 2 0.355 3.01 0.541-0.08 1.552-0.17 3.101-0.25 4.654 4.03 0.747 8.04 1.596 12.04 2.543 0.28-5.352 0.57-10.708 0.86-16.064-14.18-3.418-28.58-5.565-43.04-6.452v-13.162h13.9l3.53-21.933zm-54.325 10.961l-8.125 10.972h13.969l11.5-10.972h-17.344zm7.015 24.088c-14.843 0.878-29.629 3.085-44.17 6.63 0.284 5.357 0.571 10.708 0.854 16.065 3.999-0.957 8.013-1.816 12.041-2.572-0.083-1.553-0.165-3.102-0.248-4.655 0.991-0.185 1.977-0.365 2.973-0.541v23.031c-1.241 0.22-2.475 0.445-3.705 0.684-0.621 3.98-1.246 7.96-1.866 11.94 7.744-1.548 15.542-2.726 23.369-3.532-0.625-3.794-1.253-7.584-1.878-11.373-1.065 0.117-2.13 0.241-3.19 0.373v-23.033c0.991-0.122 1.992-0.239 2.988-0.351-0.083 1.577-0.167 3.149-0.25 4.726 4.058-0.454 8.132-0.809 12.209-1.068 0.293-5.44 0.58-10.88 0.873-16.324zm74.35 6.849c0.61 4.009 1.23 8.024 1.85 12.037 0.86 0.22 1.72 0.45 2.58 0.68v5.668c-1.58-0.42-3.15-0.824-4.74-1.215 0.77 4.048 1.54 8.096 2.3 12.148 0.81 0.21 1.63 0.424 2.44 0.639v5.785c-1.23-0.322-2.45-0.642-3.68-0.945-0.62 3.701-1.23 7.406-1.85 11.117 12.36 2.998 24.53 6.959 36.42 11.883-0.26-5.534-0.53-11.066-0.8-16.604-3.85-1.577-7.72-3.052-11.62-4.429 0.06 1.592 0.14 3.183 0.21 4.775-2.07-0.737-4.15-1.44-6.24-2.119v-5.787c2.6 0.84 5.2 1.733 7.78 2.666 0.91-3.53 1.81-7.054 2.71-10.574-3.48-1.299-6.98-2.525-10.49-3.662v-5.674c2.09 0.679 4.17 1.382 6.24 2.119-0.07 1.538-0.15 3.074-0.21 4.617 3.9 1.377 7.77 2.854 11.62 4.436 0.27-5.313 0.55-10.626 0.83-15.934-11.55-4.785-23.37-8.663-35.35-11.627zm-120.6 0.318c-8.296 2.095-16.514 4.63-24.61 7.604-5.2928 1.934-9.535 7.197-9.535 13.594v7.504c0 5.444 4.2383 8.839 9.5312 7.027 4.2478-1.455 8.5308-2.795 12.842-4.016 0.2-0.053 0.365 0.064 0.365 0.274v5.422c0 0.205-0.159 0.418-0.359 0.476-3.355 1.031-6.695 2.131-10.016 3.303 0.083-1.597 0.161-3.189 0.244-4.781-3.8863 1.362-7.7496 2.833-11.578 4.4-0.27802 5.532-0.55048 11.064-0.82392 16.592 8.2763-3.42 16.694-6.372 25.215-8.858 5.381-1.577 9.805-5.962 9.805-12.525v-8.437c0-5.44-4.419-8.897-9.795-7.452-4.322 1.163-8.618 2.443-12.881 3.844-0.2 0.069-0.365-0.051-0.365-0.256v-5.14c0-0.205 0.159-0.43 0.359-0.498 3.037-1.07 6.09-2.08 9.156-3.028-0.083 1.592-0.161 3.184-0.244 4.776 3.921-1.216 7.866-2.333 11.836-3.354 0.283-5.488 0.57-10.982 0.854-16.471zm60.611 9.28v7.959c-0.725 0.001-1.45-0.005-2.174 0.002 0.721-2.657 1.448-5.309 2.174-7.961z" transform="scale(.8)" fill="#822433"/>
  </g>
  <g fill="#fada63">
   <path d="m89.715 43.102c2.0312 0.14063 4.0586 0.3125 6.0859 0.51563-0.0664-1.2617-0.13671-2.5195-0.20312-3.7812 2.1016 0.21094 4.1992 0.44922 6.2891 0.72656v22.273c-0.94922-0.125-1.8945-0.24219-2.8398-0.35547-0.29297 1.7734-0.58594 3.543-0.87891 5.3125 4.7422 0.53125 9.4688 1.2344 14.176 2.1094-0.29297-1.8594-0.58203-3.7148-0.875-5.5703-1.0938-0.19922-2.1914-0.39062-3.2891-0.57031v-22.273c2.0977 0.34375 4.1914 0.72266 6.2773 1.1328-0.0664 1.2383-0.13281 2.4805-0.19921 3.7188 2.0078 0.39454 4.0078 0.82032 6 1.2734 0.16406-3.0195 0.32421-6.0352 0.48828-9.0586-10.398-2.3984-20.938-3.9492-31.523-4.6562 0.16406 3.0703 0.32812 6.1367 0.49219 9.2031"/>
   <path d="m143.98 69.363c0.0586 1.2734 0.11718 2.5508 0.17578 3.8242-2.8984-1.0586-5.8164-2.0508-8.7539-2.9688v-8.4766c2.2266 0.69531 4.4414 1.4336 6.6484 2.2109 0.42187-1.6562 0.84375-3.3086 1.2656-4.957-2.625-0.94531-5.2617-1.832-7.9141-2.6641v-8.3828c2.9375 0.91797 5.8555 1.9023 8.7539 2.9648-0.0586 1.2305-0.11719 2.4609-0.17578 3.6914 1.9414 0.70703 3.8711 1.4453 5.7969 2.2148 0.15625-2.9961 0.3125-5.9883 0.46484-8.9844-7.9258-3.1914-16.008-5.8516-24.191-7.9805 0.28515 1.8789 0.57031 3.7578 0.85937 5.6406 0.78125 0.20313 1.5664 0.41797 2.3477 0.63282v8.3867c-1.0781-0.30079-2.1562-0.58985-3.2383-0.8711 0.28906 1.8789 0.57422 3.7578 0.86328 5.6367 0.79297 0.21094 1.582 0.42578 2.375 0.64453v8.4805c-1.0703-0.30078-2.1445-0.58984-3.2227-0.86719-0.28515 1.7305-0.57031 3.457-0.85937 5.1875 8.4726 2.1641 16.844 4.8945 25.047 8.1953-0.14843-3.1133-0.30078-6.2305-0.44531-9.3438-1.9258-0.76954-3.8555-1.5078-5.7969-2.2148"/>
   <path d="m88.484 59.121c0.58203 0.0391 1.1641 0.0781 1.7461 0.11719 0.26172-1.7812 0.52735-3.5664 0.78906-5.3516-1.3164-0.0977-2.6328-0.18359-3.9492-0.25781-1.7891-6.7188-3.582-13.414-5.3789-20.086-3.8945-0.10938-7.793-0.10547-11.688 0.0117-2.3984 9.3008-4.7969 18.645-7.1914 28.031-1.3242 0.0898-2.6445 0.1914-3.9688 0.30469 0.26563 1.7812 0.52735 3.5625 0.79297 5.3438 2.9375-0.24219 5.8828-0.42188 8.8242-0.53125 0.86328-3.6055 1.7305-7.1992 2.5938-10.789 0.45703 0.94922 0.91406 1.8984 1.375 2.8516 2.9961-0.0547 5.9922-0.043 8.9883 0.0391 0.63281 2.625 1.2656 5.2539 1.8984 7.8867 2.9453 0.10547 5.8828 0.27734 8.8203 0.51953 0.26563-1.7852 0.53125-3.5625 0.79688-5.3438-1.3203-0.11328-2.6367-0.21094-3.957-0.30078-0.16407-0.8125-0.32813-1.6289-0.49219-2.4453m-13.226-20.238h1.2656c1.1914 4.8164 2.3828 9.6445 3.5742 14.484-2.8047-0.0586-5.6094-0.0586-8.4141 0.004 1.1914-4.8398 2.3828-9.668 3.5742-14.488"/>
   <path d="m31.379 47.715c1.996-0.461 3.992-0.891 5.996-1.285-0.066-1.242-0.129-2.481-0.199-3.723 2.0781-0.41406 4.1562-0.79297 6.2422-1.1406v22.277c-1.086 0.18-2.168 0.368-3.254 0.567-0.289 1.86-0.578 3.715-0.871 5.574 4.6914-0.88282 9.4062-1.5938 14.133-2.1367l-0.87891-5.3086c-0.94531 0.11328-1.8906 0.23047-2.8359 0.35938v-22.273c2.0938-0.28125 4.1875-0.52734 6.2852-0.73828-0.0664 1.2578-0.13281 2.5195-0.20313 3.7773 2.0274-0.20703 4.0547-0.38281 6.0859-0.52734 0.16406-3.0703 0.32813-6.1367 0.49219-9.2031-10.57 0.72657-21.098 2.3047-31.477 4.7266 0.16016 3.0156 0.32422 6.0352 0.48438 9.0547"/>
   <path d="m20.348 55.641c-3.457 0.933-6.895 1.957-10.305 3.078-1.1992 0.39-2.1719-0.274-2.1719-1.504v-4.0625c0-1.2266 0.96875-2.5742 2.1641-2.9961 3.0508-1.0742 6.1211-2.0742 9.2109-2.9961-0.06641 1.2734-0.12891 2.5469-0.19531 3.8203 1.9531-0.58594 3.9141-1.1406 5.8789-1.6641 0.16016-3.0977 0.32031-6.1914 0.48047-9.2852-5.9883 1.5781-11.922 3.4414-17.781 5.5898-3.2031 1.1719-5.7812 4.9024-5.7812 8.1953v6.5781c0 3.2891 2.5742 4.9766 5.7695 3.8828 3.4023-1.168 6.8281-2.2383 10.277-3.2148 1.2109-0.33984 2.1992 0.39453 2.1992 1.625v4.2891c0 1.2227-0.98438 2.5078-2.1914 2.875-3.3086 1.0117-6.5977 2.1133-9.8672 3.3047 0.08594-1.2852 0.17188-2.5664 0.25781-3.8516-1.9482 0.708-3.8897 1.446-5.8232 2.216-0.1563 3.117-0.3126 6.23-0.4649 9.347 6.0273-2.422 12.148-4.535 18.332-6.344 3.2578-0.95313 5.9297-4.3125 5.9297-7.6094v-6.7969c0-3.2891-2.668-5.3516-5.918-4.4766"/>
  </g>
  <g fill="#fdc82f">
   <path d="m101.89 40.562c0.94922-0.78125 1.8984-1.5508 2.8477-2.3125-4.1016-0.59766-8.2188-1.0703-12.348-1.4102 0.0234 0.0273 0.043 0.0547 0.0625 0.082-0.0195-0.0195-0.0391-0.0352-0.0625-0.0547 0.0625 1.1055 0.1211 2.2148 0.1836 3.3203-0.95313 0.96484-1.9024 1.9375-2.8555 2.9141 2.0312 0.14063 4.0586 0.3125 6.0859 0.51563-0.0664-1.2617-0.13671-2.5195-0.20312-3.7812 2.1016 0.21094 4.1953 0.44922 6.2891 0.72656"/>
   <path d="m117.63 40.594c-0.0742 1.1367-0.14844 2.2773-0.22266 3.4141-1.0508 0.76953-2.0976 1.5469-3.1484 2.332 2.0078 0.39454 4.0078 0.82032 6 1.2734 0.16406-3.0195 0.32421-6.0391 0.48828-9.0586-1.0391 0.67187-2.0781 1.3516-3.1172 2.0391"/>
   <path d="m108.69 66.555c-0.0977-0.0195-1.6367-0.27344-2.9727-0.47266 0.82422-0.77734 1.6445-1.5508 2.4609-2.3203v-22.273c2.0977 0.34375 4.1914 0.72266 6.2773 1.1328 1.0469-0.69531 2.0898-1.3828 3.1328-2.0625-4.168-0.89062-8.3516-1.6445-12.551-2.2656v27.688c-1.4062-0.21094-2.9531-0.41797-3.9336-0.54297-0.97656 0.77734-1.957 1.5625-2.9375 2.3555 4.7422 0.53125 9.4688 1.2344 14.176 2.1094-0.29297-1.8594-0.58203-3.7148-0.875-5.5703-0.92578 0.73047-1.8476 1.4766-2.7773 2.2227"/>
   <path d="m43.418 41.566c0.94922-1.0586 1.8945-2.1094 2.8437-3.1562-4.1016 0.62109-8.1875 1.3711-12.254 2.25 0.01953 0.0234 0.03906 0.043 0.0625 0.0664-0.02344-0.0117-0.04297-0.0273-0.0625-0.0391 0.0625 1.0898 0.11719 2.1797 0.17578 3.2656-0.93359 1.2461-1.8711 2.5-2.8047 3.7617 1.9961-0.46093 3.9922-0.89062 5.9961-1.2852-0.06641-1.2422-0.13281-2.4805-0.19922-3.7188 2.0781-0.41797 4.1562-0.79688 6.2422-1.1445"/>
   <path d="m59.207 36.906c-0.0781 1.1602-0.15235 2.3203-0.22657 3.4844-1.0625 1.082-2.125 2.1758-3.1875 3.2734 2.0274-0.20703 4.0547-0.38281 6.0859-0.52734 0.16406-3.0703 0.32813-6.1367 0.49219-9.2031-1.0547 0.98438-2.1094 1.9727-3.1641 2.9727"/>
   <path d="m49.758 65.598c-0.10157 0.0156-1.1758 0.15625-2.5117 0.35156 0.82031-1.0234 1.6445-2.0391 2.4648-3.0508v-22.273c2.0938-0.28125 4.1875-0.52734 6.2852-0.73828 1.0547-1.0117 2.1133-2.0117 3.168-3-4.2109 0.35547-8.4141 0.85156-12.602 1.4805v27.684c-1.4023 0.20703-3.375 0.53125-4.3516 0.69922-0.97266 1.0703-1.9453 2.1484-2.918 3.2344 4.6914-0.88282 9.4062-1.5938 14.137-2.1367-0.29687-1.7695-0.58984-3.5391-0.88281-5.3086-0.92969 1.0156-1.8594 2.0312-2.7891 3.0586"/>
   <path d="m149.77 71.578c-0.91797 0.54296-1.8438 1.0898-2.7656 1.6484 0.0742 1.2734 0.14843 2.543 0.22265 3.8164-3.7188-1.6211-17.352-5.9297-19.176-6.2617-0.96094 0.64063-1.9219 1.2891-2.8828 1.9453 8.4726 2.1641 16.844 4.8984 25.047 8.1953-0.14843-3.1133-0.30078-6.2305-0.44531-9.3438"/>
   <path d="m143.98 54.605c1.0156-0.62109 2.0312-1.2344 3.0391-1.8398 0.0742-1.125 0.14453-2.2539 0.21875-3.3789 1.0039-0.52344 2.0039-1.0391 3.0039-1.5508-0.15234 2.9961-0.30859 5.9883-0.46484 8.9844-1.9258-0.76953-3.8555-1.5078-5.7969-2.2148"/>
   <path d="m129.25 46.129c0.92969-0.64063 1.8555-1.2774 2.7812-1.9102-0.79688-0.23437-1.5977-0.46094-2.3945-0.68359-0.91016 0.64453-1.8242 1.2969-2.7344 1.9609 0.78125 0.20704 1.5664 0.41797 2.3477 0.63282"/>
   <path d="m129.25 59.926c0.92969-0.64453 1.8555-1.2812 2.7812-1.9102-0.79688-0.23438-1.5977-0.46485-2.3945-0.6875-0.92188 0.64453-1.8438 1.293-2.7617 1.9531 0.79297 0.21094 1.582 0.42188 2.375 0.64453"/>
   <path d="m144.15 50.91c1.0273-0.52344 2.0586-1.043 3.082-1.5508-4.918-1.8867-9.8867-3.5703-14.902-5.0508 0 9.2266 0 18.457-0.004 27.684 1.0273-0.45703 2.0508-0.90625 3.0703-1.3477v-8.9023c2.2266 0.69531 4.4414 1.4336 6.6484 2.2109 0.42187-1.6562 0.84375-3.3086 1.2656-4.9609-0.94922 0.55859-1.9023 1.1289-2.8555 1.7031-1.6758-0.57812-3.3633-1.1289-5.0586-1.6602v-11.09c2.9375 0.92188 5.8555 1.9102 8.7539 2.9648"/>
   <path d="m90.039 64.348c-1.2969-0.0937-2.5977-0.17188-3.8945-0.23828-0.9414 0.85546-1.8867 1.7148-2.8281 2.582 2.9453 0.10547 5.8828 0.27734 8.8203 0.51953 0.26563-1.7852 0.53125-3.5664 0.79297-5.3438-0.96094 0.8164-1.9258 1.6445-2.8906 2.4805"/>
   <path d="m86.309 63.965c0.89062-0.80468 1.7773-1.6055 2.668-2.3984-0.16407-0.8125-0.32422-1.6289-0.49219-2.4453 0.58203 0.0391 1.1641 0.0781 1.7422 0.11719 0.26953-1.7812 0.53125-3.5664 0.79296-5.3476-0.94531 0.82812-1.8906 1.6641-2.8359 2.5078-4.6875-0.28516-9.3867-0.40625-14.082-0.35938-0.5586 0.90625-1.1172 1.8125-1.6758 2.7266 4.2109-0.0781 8.4219-0.0195 12.629 0.17187 0.41797 1.6758 0.83594 3.3516 1.2539 5.0273"/>
   <path d="m76.523 38.883c0.86719-0.90234 1.7383-1.8008 2.6055-2.6914-2.0547-0.0312-4.1055-0.0312-6.1562 0-2.3359 9.2656-4.6758 18.57-7.0117 27.914-1.1484 0.0625-2.2891 0.12891-3.4375 0.20703-0.96094 0.96875-1.9258 1.9414-2.8867 2.9219 2.9375-0.24219 5.8789-0.42188 8.8242-0.53125 2.2656-9.3125 4.5312-18.586 6.7969-27.82h1.2656"/>
   <path d="m84.285 56.055c0.92969-0.8125 1.8594-1.625 2.7852-2.4258-1.7891-6.7188-3.5859-13.414-5.3789-20.086-0.85547 0.87891-1.707 1.7695-2.5625 2.6602 1.7188 6.5938 3.4375 13.215 5.1562 19.852"/>
   <path d="m8.293 69.305c-0.08203 1.2852-0.17187 2.5664-0.25781 3.8516-1.0117 1.2773-2.0195 2.5625-3.0273 3.8555 0.0663-1.34 0.1366-2.672 0.203-4.012 1.0274-1.238 2.0547-2.473 3.0821-3.695"/>
   <path d="m26.262 66.914v-6.7969c0-1.7734-0.77344-3.1797-1.9961-3.9727-0.79297 0.85547-1.582 1.7188-2.3711 2.5898 0.75781 0.63281 1.2266 1.5781 1.2266 2.7969v4.6016c0 2.8906-2.3281 5.5586-5.1758 6.4297-4.347 1.332-8.6638 2.812-12.937 4.449-1.0041 1.273-2.008 2.558-3.0041 3.855 6.0273-2.422 12.148-4.535 18.332-6.344 3.2578-0.95313 5.9258-4.3125 5.9258-7.6094"/>
   <path d="m9.7461 47.539c-2.8164 0.9961-4.8008 3.8203-4.8008 6.707v4c0 1.418 0.40625 2.3398 1.293 2.8945 0.7305-0.886 1.457-1.765 2.1836-2.644-0.336-0.277-0.5508-0.715-0.5508-1.281v-4.0625c0-1.2266 0.96875-2.5742 2.1641-2.9961 3.0508-1.0742 6.1211-2.0742 9.2109-2.9961 1.0234-1.2109 2.0508-2.4141 3.0781-3.6094-4.2266 1.1875-8.4219 2.5156-12.578 3.9883"/>
   <path d="m18.195 58.578c-2.8906 0.8125-5.7656 1.6875-8.625 2.6367-1.3086 0.4336-2.4961 0.4336-3.3945-0.008-0.78516 0.97266-1.5703 1.9531-2.3555 2.9336 1.0156 0.54687 2.3398 0.63281 3.7969 0.13671 3.4023-1.168 6.8281-2.2383 10.277-3.2148 0.66406-0.18359 1.2539-0.0391 1.6602 0.32813 0.78125-0.89063 1.5586-1.7774 2.3398-2.6562-0.85938-0.63653-1.8828-0.70685-3.6992-0.15606"/>
   <path d="m19.051 50.98c1.0039-1.2188 2.0117-2.4297 3.0195-3.6289 0.08594-1.2539 0.16797-2.5078 0.25391-3.7617 1.0273-1.1953 2.0547-2.3789 3.0859-3.5586-0.16016 3.0938-0.32031 6.1914-0.48047 9.2852-1.9648 0.52343-3.9258 1.0781-5.8789 1.6641"/>
</g></svg>
